<?xml version="1.0" encoding="UTF-8"?>
<!-- Generated by Pixelmator Pro 3.4.3 -->
<svg width="1080" height="320" viewBox="0 0 1080 320" xmlns="http://www.w3.org/2000/svg">
    <g id="Group">
        <g id="image-copy">
            <g id="SvgjsG1007">
                <g id="g1">
                    <path id="Path" fill="#ffd427" stroke="#ffd427" stroke-width="1.362536" d="M 55.40818 140.497543 C 40.437172 143.408569 11.32689 150.47821 11.32689 160.043015 C 11.32689 171.687149 50.833706 179.172638 60.814377 180.836075 C 59.982655 168.360245 59.982655 155.468552 60.814377 142.992722 L 63.725407 144.240295 C 62.893677 156.716125 62.893677 168.776108 64.141266 181.251938 C 82.439163 184.162979 104.063934 186.242279 127.768028 187.074005 C 127.768028 181.667801 127.352165 176.261612 127.352165 170.439545 L 130.679062 172.102997 C 130.679062 177.093338 130.679062 182.083664 131.094925 187.489868 C 137.33284 187.489868 143.570755 187.905716 150.224533 187.905716 L 150.640396 190.816757 C 143.986618 190.816757 137.748688 190.816757 131.094925 190.400894 C 131.926651 206.619476 138.580429 307.257904 158.1259 307.257904 C 165.195541 307.257904 170.60173 294.366211 174.760345 277.315887 L 177.255508 278.97934 C 174.344482 291.45517 170.185867 301.435822 165.195541 306.842041 C 208.445114 301.851685 234.228516 257.770416 245.872604 216.184296 L 248.783661 217.016006 C 239.218826 253.611786 218.425766 290.623444 184.741013 304.762726 C 231.317459 296.445496 269.992584 266.087646 289.953888 225.333221 L 292.033203 225.7491 L 292.449066 227.8284 C 267.497375 276.900024 216.762329 310.168915 158.1259 310.168915 C 75.369522 310.168915 8 243.215271 8 160.043015 C 8 77.286636 75.369522 9.917114 158.1259 9.917114 C 241.298157 9.917114 308.251801 77.286636 308.251801 160.043015 C 308.251801 172.51886 307.004211 184.578827 304.09317 196.222961 L 299.93457 199.133972 C 302.845581 188.737442 304.509033 177.925049 304.924896 166.696793 C 295.360107 176.261612 269.160858 181.667801 255.021561 183.747116 L 255.021561 185.410553 L 246.70433 182.083664 C 248.783661 181.667801 250.447083 181.667801 252.11055 181.251938 C 253.358109 167.112656 253.358109 152.973373 252.11055 139.249969 C 246.70433 138.418243 240.882278 137.586517 234.644379 136.754791 L 237.139526 133.843765 C 242.129852 134.259628 247.120193 135.091354 252.11055 135.92308 C 251.278809 130.101013 250.447083 123.863098 249.199493 117.625183 L 251.694672 114.298294 C 253.358109 121.783798 254.189835 129.269287 255.021561 136.338928 C 269.160858 138.834106 295.360107 144.240295 304.924896 153.389252 C 302.013885 85.188004 251.694672 27.799164 184.741013 15.323334 C 216.762329 29.046753 236.723663 62.731476 247.120193 97.247971 L 244.209167 98.079697 C 231.733322 58.157043 206.365799 18.234344 165.195541 13.659882 C 182.24585 31.541901 187.236191 104.733475 188.483765 130.101013 L 195.137543 130.101013 L 190.56308 133.012039 L 188.483765 133.012039 L 188.483765 134.675491 L 185.572739 136.754791 L 185.572739 133.012039 C 167.274841 132.180328 148.976944 132.180328 131.094925 133.012039 L 131.094925 135.92308 L 127.768028 135.091354 L 127.768028 133.012039 L 123.609413 133.427902 L 116.539772 130.516876 C 120.282524 130.516876 124.025276 130.101013 128.183899 130.101013 C 129.01561 104.733475 134.005936 31.541901 151.472122 13.659882 C 105.311523 18.650208 79.112267 68.137695 68.715736 111.803116 C 67.884018 111.387253 66.636429 111.387253 65.388847 110.971405 C 74.537788 72.29631 95.330856 31.126038 131.926651 15.323334 C 64.557129 27.799164 14.237918 85.188004 11.32689 153.389252 C 18.812391 146.319611 35.862701 141.329269 50.001984 138.418243 L 55.40818 140.497543 Z M 199.296158 153.389252 C 197.216858 152.55751 198.880295 149.6465 200.95961 150.894073 L 208.860962 155.468552 C 210.524414 156.300262 208.860962 159.211304 207.19751 157.963715 L 199.296158 153.389252 Z M 177.671371 192.064331 C 175.592072 191.23262 176.423798 188.321579 178.503098 189.153305 L 187.652039 192.064331 C 189.315491 192.896057 188.483765 195.807083 186.404465 194.975372 L 177.671371 192.064331 Z M 174.760345 228.244263 C 172.681046 227.412537 173.512756 224.501511 175.592072 224.917374 L 181.414124 226.580811 C 183.493439 227.412537 182.661713 230.323563 180.582397 229.907715 L 174.760345 228.244263 Z M 174.344482 238.22493 C 172.265182 237.809067 173.096909 234.482178 175.176208 235.313904 L 179.750687 236.561493 C 181.829987 236.977356 180.99826 240.30423 178.918961 239.472504 L 174.344482 238.22493 Z M 175.176208 217.847717 C 173.096909 217.43187 173.928619 214.10498 176.007935 214.936707 L 183.077576 217.016006 C 185.156876 217.847717 184.32515 220.758759 182.24585 220.342896 L 175.176208 217.847717 Z M 175.592072 206.203613 C 173.512756 205.78775 174.344482 202.460861 176.423798 203.292587 L 185.156876 205.78775 C 187.236191 206.203613 185.988602 209.530518 184.32515 208.698792 L 175.592072 206.203613 Z M 68.715736 115.130005 L 166.443115 153.389252 L 242.961578 101.406586 L 269.576721 95.584534 L 251.694672 109.307953 L 206.365799 169.191971 C 223.831985 176.261612 246.288467 184.99469 262.922943 192.064331 L 281.220795 204.124313 L 297.855286 204.124313 L 324.054504 185.826416 L 343.600006 187.489868 L 316.569031 209.946365 L 339.441376 217.43187 L 314.073853 217.43187 L 311.578674 248.205597 L 311.162811 250.284912 L 309.083527 249.869049 L 298.687012 246.126297 L 297.855286 245.710434 L 297.855286 244.46286 L 294.944244 223.253922 L 255.853302 215.768433 C 237.555405 211.193954 211.772003 202.460861 193.474106 196.638824 L 179.750687 268.582794 L 183.909286 279.811035 L 163.947968 265.671783 L 151.472122 177.509186 L 48.338539 134.675491 C 45.011646 133.012039 32.951672 120.536209 32.119949 117.20932 C 32.535812 110.139679 64.972984 113.466568 68.715736 115.130005 Z M 166.858978 156.716125 L 67.468155 118.041046 C 60.814377 116.377594 41.268894 115.130005 35.862701 117.20932 C 37.526146 120.120346 46.259232 129.269287 49.170261 131.348602 L 154.799011 175.014023 L 166.858978 263.592468 L 177.255508 271.077972 L 176.423798 268.998657 L 190.978928 192.480194 C 212.603714 199.133972 234.644379 206.619476 256.269135 212.441528 L 296.191803 220.342896 C 298.271149 220.758759 300.766296 220.758759 297.855286 218.679459 L 261.675354 194.975372 C 241.298157 186.658142 221.752655 178.756775 201.375473 170.855408 L 249.199493 106.81279 L 255.853302 101.822449 L 244.209167 104.317612 L 166.858978 156.716125 Z M 286.627014 207.451202 L 297.439392 214.520844 C 304.509033 214.10498 311.994537 214.10498 319.064178 214.10498 C 311.994537 212.025665 305.34079 209.530518 298.271149 207.451202 L 286.627014 207.451202 Z M 298.271149 224.085648 L 300.766296 243.215271 L 308.251801 246.126297 L 310.746948 217.43187 L 301.182159 217.43187 C 303.261444 220.342896 301.598022 224.501511 298.271149 224.085648 Z M 312.826294 208.698792 L 335.282776 190.400894 L 324.88623 189.153305 L 302.013885 205.371887 L 312.826294 208.698792 Z M 190.147217 165.033356 C 188.483765 164.201645 189.731354 161.290604 191.810654 162.12233 L 200.127869 166.696793 C 202.207184 167.528519 200.543747 170.439545 198.880295 169.607834 L 190.147217 165.033356 Z M 215.098892 137.586517 C 213.019577 136.754791 214.683014 133.843765 216.762329 135.091354 L 221.752655 138.002365 C 223.831985 139.249969 222.168518 141.745117 220.089218 140.913406 L 215.098892 137.586517 Z M 222.168518 130.101013 C 220.089218 129.269287 221.752655 126.358261 223.831985 127.60585 L 227.99057 130.101013 C 230.069901 130.932739 228.406433 133.843765 226.327148 133.012039 L 222.168518 130.101013 Z M 207.613388 145.072006 C 205.949936 144.240295 207.613388 141.329269 209.276825 142.160995 L 215.930618 145.903748 C 217.594055 147.151321 216.346466 150.062363 214.267151 148.814758 L 207.613388 145.072006 Z M 11.32689 166.696793 C 14.237918 235.313904 64.557129 292.702759 131.926651 304.762726 C 87.429489 286.048981 65.80471 228.660126 61.230236 183.747116 C 47.506813 181.667801 20.891697 176.261612 11.32689 166.696793 Z M 255.437424 139.665833 C 256.684998 153.389252 256.684998 167.112656 255.437424 180.836075 C 265.833954 179.172638 305.34079 171.687149 305.34079 160.043015 C 305.34079 148.814758 265.833954 141.329269 255.437424 139.665833 Z M 185.156876 129.68515 C 184.741013 113.882431 178.087234 13.244019 158.1259 13.244019 C 138.580429 13.244019 131.926651 113.882431 131.094925 129.68515 C 148.976944 129.269287 167.274841 129.269287 185.156876 129.68515 Z M 128.183899 190.400894 C 104.479805 189.569168 82.855019 187.489868 64.557129 184.578827 C 69.547462 231.987015 96.578438 300.604126 151.472122 306.842041 C 134.005936 288.544128 129.01561 215.35257 128.183899 190.400894 Z"/>
                </g>
            </g>
            <g id="SvgjsG1009">
                <path id="path1" fill="#07689f" stroke="none" d="M 387.331268 166.019638 C 372.372925 166.019638 359.532593 160.724655 348.810242 150.267059 C 337.955536 139.809479 332.528168 127.101501 332.528168 112.407913 C 332.528168 97.71434 337.955536 85.006393 348.810242 74.548798 C 359.532593 64.091187 372.372925 58.796204 387.331268 58.796204 C 402.421967 58.796204 415.394684 64.091187 426.117035 74.548798 C 436.839355 85.006393 442.134338 97.71434 442.134338 112.407913 C 442.134338 127.101501 436.839355 139.809479 426.117035 150.267059 C 415.394684 160.724655 402.421967 166.019638 387.331268 166.019638 Z M 387.331268 140.471344 C 395.273712 140.471344 401.892456 137.691483 407.319824 132.264114 C 412.747192 126.836761 415.394684 120.218018 415.394684 112.407913 C 415.394684 104.597824 412.747192 97.846725 407.319824 92.419357 C 401.892456 86.991989 395.273712 84.344528 387.331268 84.344528 C 379.521149 84.344528 372.902435 87.124374 367.475098 92.551743 C 362.047699 97.979095 359.267822 104.597824 359.267822 112.407913 C 359.267822 120.218018 362.047699 126.836761 367.475098 132.264114 C 372.902435 137.691483 379.521149 140.471344 387.331268 140.471344 Z M 452.724335 164.034027 L 452.724335 60.78183 L 479.066864 60.78183 L 479.066864 138.485718 L 528.574951 138.485718 L 528.574951 164.034027 L 452.724335 164.034027 Z M 539.164917 164.034027 L 539.164917 60.78183 L 587.084534 60.78183 C 597.542114 60.78183 606.411255 63.164581 613.956604 67.930069 C 621.501953 72.695541 627.061646 78.91716 630.635803 86.594879 C 634.2099 94.272614 635.930786 102.876953 635.930786 112.407913 C 635.930786 122.071274 634.2099 130.675629 630.635803 138.353348 C 627.061646 146.031082 621.501953 152.25267 613.956604 156.885803 C 606.411255 161.651276 597.542114 164.034027 587.084534 164.034027 L 539.164917 164.034027 Z M 565.639832 138.485718 L 585.098877 138.485718 C 592.776672 138.485718 598.733521 136.102982 602.969482 131.337494 C 607.07312 126.704376 609.191101 120.350403 609.191101 112.407913 C 609.191101 104.465454 607.07312 98.111465 602.969482 93.478363 C 598.733521 88.845245 592.776672 86.462509 585.098877 86.462509 L 565.639832 86.462509 L 565.639832 138.485718 Z M 747.654968 166.019638 C 732.696533 166.019638 719.856201 160.724655 709.133911 150.267059 C 698.279236 139.809479 692.851807 127.101501 692.851807 112.407913 C 692.851807 97.71434 698.279236 85.006393 709.133911 74.548798 C 719.856201 64.091187 732.696533 58.796204 747.654968 58.796204 C 762.745667 58.796204 775.718384 64.091187 786.440674 74.548798 C 794.515503 82.358902 799.545776 91.492737 801.399048 101.685577 L 773.732727 101.685577 C 772.408997 98.243835 770.291016 95.066849 767.643494 92.419357 C 762.216125 86.991989 755.597473 84.344528 747.654968 84.344528 C 739.844849 84.344528 733.226074 87.124374 727.798706 92.551743 C 722.371399 97.979095 719.591492 104.597824 719.591492 112.407913 C 719.591492 120.218018 722.371399 126.836761 727.798706 132.264114 C 733.226074 137.691483 739.844849 140.471344 747.654968 140.471344 C 755.597473 140.471344 762.216125 137.691483 767.643494 132.264114 C 771.349976 128.557632 773.732727 124.454025 774.924072 119.556152 L 801.928589 119.556152 C 800.472412 131.337494 795.442078 141.53035 786.440674 150.267059 C 775.718384 160.724655 762.745667 166.019638 747.654968 166.019638 Z M 812.518433 164.034027 L 812.518433 60.78183 L 838.993408 60.78183 L 838.993408 164.034027 L 812.518433 164.034027 Z M 881.750366 164.034027 L 881.750366 86.462509 L 849.583313 86.462509 L 849.583313 60.78183 L 940.392273 60.78183 L 940.392273 86.462509 L 908.225342 86.462509 L 908.225342 164.034027 L 881.750366 164.034027 Z M 991.753723 164.034027 L 991.753723 126.174881 L 950.9823 60.78183 L 982.090393 60.78183 L 1004.858765 98.243835 L 1027.759644 60.78183 L 1059 60.78183 L 1018.096252 126.174881 L 1018.096252 164.034027 L 991.753723 164.034027 Z"/>
            </g>
            <g id="SvgjsG1010">
                <path id="path2" fill="#ffd427" stroke="none" d="M 358.651855 238.515106 L 358.651855 234.550476 L 362.132965 234.550476 L 362.326385 208.635376 L 354.445465 208.635376 L 354.252106 213.566986 L 349.417206 213.566986 L 349.610596 204.670776 L 380.312256 204.670776 L 380.505615 213.566986 L 375.670746 213.566986 L 375.477325 208.635376 L 367.741486 208.635376 L 367.548096 234.550476 L 371.464355 234.550476 L 371.464355 238.515106 L 358.651855 238.515106 Z M 390.349518 222.173126 C 390.349518 211.584686 396.973297 204.090576 407.416718 204.090576 C 417.183228 204.090576 423.081818 210.569351 423.081818 221.012756 C 423.081818 229.957306 417.860107 239.095291 406.449707 239.095291 C 396.586517 239.095291 390.349518 232.568176 390.349518 222.173126 Z M 396.344788 221.931381 C 396.344788 228.506836 399.535828 234.550476 406.643127 234.550476 C 415.587708 234.550476 417.086517 225.895996 417.086517 221.302841 C 417.086517 215.259216 415.055847 208.635376 407.078278 208.635376 C 401.421417 208.635376 396.344788 212.503311 396.344788 221.931381 Z M 433.36084 208.635376 L 433.36084 204.670776 L 445.738159 204.670776 L 445.738159 208.635376 L 442.305389 208.635376 L 442.25705 225.605896 C 442.25705 228.216751 442.35376 230.972656 444.14267 232.664856 C 445.689819 234.115341 447.33371 234.550476 450.18631 234.550476 C 453.47403 234.550476 455.16626 234.163696 456.713409 232.616516 C 458.26059 231.069351 458.59903 228.990326 458.647369 225.750946 L 458.74408 208.635376 L 454.779449 208.635376 L 454.779449 204.670776 L 467.156799 204.670776 L 467.156799 208.635376 L 463.917419 208.635376 L 463.820709 226.814636 C 463.820709 231.311096 462.37027 234.357086 460.0495 236.339386 C 457.87381 238.176666 454.10257 239.095291 450.137909 239.095291 C 445.06131 239.095291 442.160339 238.128311 439.98465 236.291046 C 437.518829 234.212036 436.841949 231.311096 436.841949 226.862976 C 436.841949 220.384216 436.89032 214.485626 436.93866 208.635376 L 433.36084 208.635376 Z M 477.339111 238.515106 L 477.339111 234.550476 L 480.675201 234.550476 L 480.868591 208.635376 L 477.339111 208.635376 L 477.339111 204.670776 L 492.375671 204.670776 C 499.337952 204.670776 502.625671 208.683746 502.625671 213.615341 C 502.625671 219.465576 498.854462 222.124771 494.551361 222.559906 L 494.551361 222.656616 C 496.436981 222.801666 497.694061 224.397186 498.854462 226.331146 L 502.528992 232.519821 C 503.495941 234.115341 504.414581 234.550476 505.526611 234.550476 L 506.783691 234.550476 L 506.783691 238.515106 L 503.640991 238.515106 C 500.788391 238.515106 499.482971 238.225006 497.500641 234.937271 L 492.859161 227.056366 C 491.457031 224.638916 490.731781 224.107086 489.136292 224.107086 L 486.235321 224.107086 L 486.138611 234.550476 L 490.054901 234.550476 L 490.054901 238.515106 L 477.339111 238.515106 Z M 486.235321 219.852356 L 490.441711 219.852356 C 494.261292 219.852356 496.920471 217.821716 496.920471 214.195526 C 496.920471 210.666046 494.744781 208.635376 490.828491 208.635376 L 486.332031 208.635376 Z M 557.318115 221.883026 L 553.981995 212.309906 C 553.450195 210.811096 553.256775 209.940811 553.111755 209.215576 L 553.015076 209.215576 C 552.869995 209.892456 552.676575 210.811096 552.096375 212.309906 L 548.373535 221.883026 L 557.318115 221.883026 Z M 535.367615 238.515106 L 535.367615 234.550476 L 538.268555 234.550476 L 550.549255 204.670776 L 556.544556 204.670776 L 567.906555 234.550476 L 570.904175 234.550476 L 570.904175 238.515106 L 558.526794 238.515106 L 558.526794 234.550476 L 561.621155 234.550476 L 558.720215 226.137756 L 546.826355 226.137756 L 543.683655 234.550476 L 547.164856 234.550476 L 547.164856 238.515106 L 535.367615 238.515106 Z M 609.177307 214.582321 L 604.342407 214.582321 L 604.342407 209.167221 C 603.085266 208.828781 601.151367 208.345291 598.588806 208.345291 C 590.514526 208.345291 586.308228 213.276886 586.308228 221.737976 C 586.308228 229.425476 590.949707 234.840576 597.863647 234.840576 C 599.507446 234.840576 601.731506 234.647171 603.617126 234.163696 L 603.713867 226.717926 L 599.845947 226.717926 L 599.845947 222.753311 L 612.319946 222.753311 L 612.319946 226.717926 L 608.838867 226.717926 L 608.742126 237.499771 C 606.469727 238.321716 602.021667 239.095291 598.395447 239.095291 C 586.066467 239.095291 580.312927 231.552841 580.312927 221.931381 C 580.312927 211.391296 587.371887 204.090576 598.637207 204.090576 C 602.601868 204.090576 606.904907 205.009216 609.177307 205.927841 L 609.177307 214.582321 Z M 622.308899 238.515106 L 622.308899 234.550476 L 625.693359 234.550476 L 625.886719 208.635376 L 621.970459 208.635376 L 621.970459 204.670776 L 645.758179 204.670776 L 645.951538 213.566986 L 641.455078 213.566986 L 641.165039 208.635376 L 631.350159 208.635376 L 631.253479 219.078781 L 640.923279 219.078781 L 640.923279 223.333496 L 631.253479 223.333496 L 631.156738 234.550476 L 641.455078 234.550476 L 641.841919 229.038696 L 646.386719 229.038696 L 645.999939 238.515106 L 622.308899 238.515106 Z M 657.68103 238.515106 L 657.68103 234.550476 L 660.968811 234.550476 L 661.16217 208.635376 L 656.907471 208.635376 L 656.907471 204.670776 L 665.803711 204.670776 L 681.468811 225.122406 C 682.484131 226.476196 683.93457 228.700241 684.85321 230.199066 L 684.94989 230.199066 L 684.756592 208.635376 L 680.985352 208.635376 L 680.985352 204.670776 L 692.78241 204.670776 L 692.78241 208.635376 L 689.49469 208.635376 L 689.301392 238.515106 L 684.90155 238.515106 L 667.97937 216.564636 C 667.012451 215.307556 666.093811 213.953781 665.610352 212.986801 L 665.51355 213.083496 L 665.70697 234.550476 L 669.429871 234.550476 L 669.429871 238.515106 L 657.68103 238.515106 Z M 731.780823 214.582321 L 726.945923 214.582321 L 726.945923 209.167221 C 725.688782 208.828781 723.754883 208.345291 721.192322 208.345291 C 713.118042 208.345291 708.911743 213.276886 708.911743 221.737976 C 708.911743 229.425476 713.553223 234.840576 720.467102 234.840576 C 722.787903 234.840576 725.253723 234.598816 726.510803 234.357086 L 726.704224 228.265106 L 731.539063 228.265106 L 731.345642 237.499771 C 729.169983 238.225006 724.818481 239.095291 720.805603 239.095291 C 708.669922 239.095291 702.916443 231.552841 702.916443 221.931381 C 702.916443 211.391296 709.975403 204.090576 721.240662 204.090576 C 725.495483 204.090576 729.508362 205.009216 731.780823 205.927841 L 731.780823 214.582321 Z M 752.213074 238.515106 L 752.213074 234.550476 L 755.597595 234.550476 L 755.791016 224.542236 L 744.042175 208.635376 L 741.092834 208.635376 L 741.092834 204.670776 L 753.470215 204.670776 L 753.470215 208.635376 L 750.182495 208.635376 C 750.569214 209.022186 750.859314 209.360626 751.149475 209.795776 L 758.933655 220.384216 L 766.621155 209.795776 C 766.911194 209.360626 767.249695 209.022186 767.636414 208.635376 L 763.816895 208.635376 L 763.816895 204.670776 L 775.614075 204.670776 L 775.614075 208.635376 L 772.616394 208.635376 L 761.205994 224.542236 L 761.012634 234.550476 L 764.590515 234.550476 L 764.590515 238.515106 L 752.213074 238.515106 Z"/>
            </g>
        </g>
    </g>
</svg>
